PathFileType        4      (X/Y/Z)      C:\Users\mrr\Desktop\moco_PFJCF\transformed_exp_static.trc         
DataRate	CameraRate	NumFrames	NumMarkers	Units	OrigDataRate	OrigDataStartFrame	OrigNumFrames
200.0	200.0	4	64	mm	200.0	490	652
Frame#	Time	R.Shoulder			L.Shoulder			R.Clavicle			L.Clavicle			R.Biceps			R.Elbow			R.MElbow			R.Forearm			R.Wrist			L.Biceps			L.Elbow			L.MElbow			L.Forearm			L.Wrist			R.ASIS			L.ASIS			R.PSIS			S2			L.PSIS			R.TH1			R.TH2			R.TH3			R.Knee			R.MKnee			R.SH1			R.SH2			R.SH3			R.SH4			R.Ankle			R.MAnkle			R.Heel			R.MT5			R.Toe			L.TH1			L.TH2			L.TH3			L.TH4			L.Knee			L.MKnee			L.SH1			L.SH2			L.SH3			L.Ankle			L.MAnkle			L.Heel			L.MT5			L.Toe			R_HJC			L_HJC			L.HeelGround			L.ToeGround			L.MT5Ground			L.AnkleJoint			L.AnkleJointGround			L.KneeJoint			R.HeelGround			R.ToeGround			R.MT5Ground			R.AnkleJoint			R.AnkleJointGround			R.KneeJoint			MidASIS			MidPSIS			MidClavicle			
		X1	Y1	Z1	X2	Y2	Z2	X3	Y3	Z3	X4	Y4	Z4	X5	Y5	Z5	X6	Y6	Z6	X7	Y7	Z7	X8	Y8	Z8	X9	Y9	Z9	X10	Y10	Z10	X11	Y11	Z11	X12	Y12	Z12	X13	Y13	Z13	X14	Y14	Z14	X15	Y15	Z15	X16	Y16	Z16	X17	Y17	Z17	X18	Y18	Z18	X19	Y19	Z19	X20	Y20	Z20	X21	Y21	Z21	X22	Y22	Z22	X23	Y23	Z23	X24	Y24	Z24	X25	Y25	Z25	X26	Y26	Z26	X27	Y27	Z27	X28	Y28	Z28	X29	Y29	Z29	X30	Y30	Z30	X31	Y31	Z31	X32	Y32	Z32	X33	Y33	Z33	X34	Y34	Z34	X35	Y35	Z35	X36	Y36	Z36	X37	Y37	Z37	X38	Y38	Z38	X39	Y39	Z39	X40	Y40	Z40	X41	Y41	Z41	X42	Y42	Z42	X43	Y43	Z43	X44	Y44	Z44	X45	Y45	Z45	X46	Y46	Z46	X47	Y47	Z47	X48	Y48	Z48	X49	Y49	Z49	X50	Y50	Z50	X51	Y51	Z51	X52	Y52	Z52	X53	Y53	Z53	X54	Y54	Z54	X55	Y55	Z55	X56	Y56	Z56	X57	Y57	Z57	X58	Y58	Z58	X59	Y59	Z59	X60	Y60	Z60	X61	Y61	Z61	X62	Y62	Z62	X63	Y63	Z63	X64	Y64	Z64	
490	2.445	-262.098	1376.283	-410.924	-263.42099999999994	1387.821	-740.064	-216.25799999999998	1348.389	-557.802	-212.69499999999996	1350.062	-597.43	-199.96099999999998	1198.125	-346.748	-78.05099999999999	1136.373	-296.62	-93.12099999999997	1105.56	-353.455	30.585000000000022	1132.126	-361.188	153.97700000000003	1146.928	-324.704	-163.48399999999995	1240.455	-812.245	-96.65899999999995	1133.204	-844.607	-108.49999999999996	1109.905	-782.311	-4.627999999999949	1101.105	-837.47	133.21600000000007	1159.618	-823.553	-140.84899999999996	962.656	-436.711	-151.48099999999994	958.829	-702.066	-320.16499999999996	955.581	-515.87	-325.04299999999995	947.481	-558.091	-329.02699999999993	963.009	-606.782	-190.45099999999996	734.754	-366.093	-282.551	724.366	-415.991	-286.846	594.253	-409.233	-246.48199999999997	484.179	-377.764	-204.83999999999997	464.411	-492.047	-233.54799999999997	407.083	-355.866	-251.34099999999998	302.912	-317.313	-312.188	406.25	-382.328	-325.174	288.641	-355.762	-270.64	102.936	-319.846	-248.63699999999997	105.067	-398.565	-329.083	58.095	-363.996	-163.80499999999998	44.859	-277.206	-111.63899999999998	67.008	-336.526	-184.82299999999995	782.192	-756.877	-187.76799999999994	649.16	-746.461	-289.7869999999999	796.094	-745.523	-301.5679999999999	661.148	-721.244	-260.65399999999994	496.849	-740.504	-245.37599999999998	475.204	-616.593	-228.84499999999994	403.307	-738.594	-321.75499999999994	416.777	-743.338	-329.05999999999995	301.578	-765.838	-283.61899999999997	104.68	-774.626	-268.95399999999995	103.778	-694.95	-346.86799999999994	53.534	-724.715	-179.66699999999994	43.995	-806.372	-128.32299999999995	68.97	-751.659	-188.92699999999996	858.085	-465.941	-207.74499999999998	867.036	-665.709	-346.86799999999994	0.0	-724.715	-128.32299999999995	0.0	-751.659	-179.66699999999994	0.0	-806.372	-276.2865	104.22900000000001	-734.788	-276.2865	0.0	-734.788	-253.01499999999996	486.0265	-678.5485	-329.083	0.0	-363.996	-111.63899999999998	0.0	-336.526	-163.80499999999998	0.0	-277.206	-259.6385	104.0015	-359.20550000000003	-259.6385	0.0	-359.20550000000003	-225.66099999999997	474.29499999999996	-434.9055	-146.16499999999996	960.7425	-569.3885	-324.59599999999995	959.2950000000001	-561.326	-214.47649999999996	1349.2255	-577.616	
491	2.45	-261.988	1376.427	-410.801	-263.58699999999993	1387.87	-739.881	-216.34799999999998	1348.397	-557.77	-212.86299999999997	1350.166	-597.497	-200.03199999999998	1198.15	-346.785	-78.08199999999998	1136.434	-296.599	-93.17899999999997	1105.978	-353.65	30.57500000000002	1132.21	-361.186	153.91500000000002	1146.968	-324.73	-163.65099999999995	1240.486	-812.07	-96.84799999999994	1133.267	-844.538	-107.46099999999996	1108.249	-780.377	-4.942999999999948	1100.918	-837.257	132.98600000000005	1159.576	-823.504	-141.04399999999998	962.566	-436.698	-151.70199999999994	958.931	-701.887	-320.25999999999993	955.567	-515.52	-325.18799999999993	947.542	-557.855	-329.2389999999999	963.108	-606.69	-190.71499999999997	734.833	-365.731	-282.85	724.066	-416.06	-287.028	594.215	-409.068	-246.57399999999998	484.258	-377.744	-204.92299999999997	464.55	-491.997	-233.80199999999996	407.101	-355.926	-251.51199999999997	302.718	-317.229	-312.281	406.231	-382.195	-325.269	288.642	-355.702	-270.669	103.064	-319.876	-248.96399999999997	105.31	-398.553	-329.08	58.167	-363.919	-163.83599999999998	44.79	-277.124	-111.59999999999998	67.1	-336.33	-185.17399999999995	782.202	-756.519	-187.98599999999993	649.261	-746.43	-290.1089999999999	796.141	-745.324	-301.86699999999996	661.206	-721.082	-260.95199999999994	496.848	-740.07	-245.44199999999998	475.062	-616.492	-228.98399999999995	403.4	-738.526	-321.9119999999999	416.893	-743.236	-329.18699999999995	301.671	-765.705	-283.65599999999995	104.688	-774.627	-269.1139999999999	103.738	-695.011	-346.94499999999994	53.491	-724.378	-179.65499999999994	44.094	-806.326	-128.34399999999994	69.03	-751.474	-189.07799999999997	858.029	-465.871	-207.99099999999999	867.13	-665.622	-346.94499999999994	0.0	-724.378	-128.34399999999994	0.0	-751.474	-179.65499999999994	0.0	-806.326	-276.38499999999993	104.213	-734.819	-276.38499999999993	0.0	-734.819	-253.19699999999997	485.95500000000004	-678.281	-329.08	0.0	-363.919	-111.59999999999998	0.0	-336.33	-163.83599999999998	0.0	-277.124	-259.8165	104.187	-359.2145	-259.8165	0.0	-359.2145	-225.74849999999998	474.404	-434.8705	-146.37299999999996	960.7485	-569.2925	-324.74949999999995	959.3375	-561.105	-214.60549999999998	1349.2815	-577.6334999999999	
492	2.455	-261.91	1376.398	-410.721	-263.77699999999993	1387.973	-739.84	-216.46899999999997	1348.438	-557.712	-212.92599999999996	1350.203	-597.302	-200.02999999999997	1198.222	-346.635	-78.07599999999998	1136.32	-296.578	-93.30299999999997	1106.094	-353.479	30.565000000000023	1132.298	-361.169	153.88000000000002	1147.089	-324.868	-163.83799999999994	1240.547	-811.897	-97.07199999999995	1133.246	-844.42	-107.68499999999996	1108.084	-780.362	-5.138999999999949	1100.956	-837.248	132.85100000000006	1159.546	-823.412	-141.22699999999998	962.53	-436.627	-151.90099999999995	959.031	-701.845	-320.4069999999999	955.637	-515.432	-325.74299999999994	947.756	-557.487	-329.54799999999994	963.111	-606.327	-190.89399999999998	734.637	-365.665	-282.988	723.874	-415.911	-287.263	594.154	-408.819	-246.79099999999997	484.167	-377.75	-205.35099999999997	464.548	-491.561	-233.88399999999996	407.221	-355.763	-251.60799999999998	302.552	-317.164	-312.378	406.179	-382.014	-325.391	288.633	-355.602	-270.693	103.153	-319.87	-248.94099999999997	105.423	-398.52	-329.11	58.267	-364.177	-163.83699999999996	44.849	-277.219	-111.63399999999999	67.177	-336.293	-185.60099999999994	782.693	-756.913	-188.21999999999994	649.492	-746.437	-290.42099999999994	796.261	-745.034	-302.1379999999999	661.394	-721.166	-261.14799999999997	496.944	-739.983	-245.63999999999996	474.85	-616.494	-229.09699999999995	403.475	-738.449	-322.13699999999994	416.904	-743.053	-329.31699999999995	301.743	-765.595	-283.8539999999999	105.009	-774.777	-269.1259999999999	103.599	-694.972	-346.93299999999994	53.549	-724.289	-179.62099999999995	44.183	-806.302	-128.32799999999995	69.144	-751.438	-189.33199999999997	858.039	-465.762	-208.38099999999997	867.213	-665.497	-346.93299999999994	0.0	-724.289	-128.32799999999995	0.0	-751.438	-179.62099999999995	0.0	-806.302	-276.48999999999995	104.304	-734.8745	-276.48999999999995	0.0	-734.8745	-253.39399999999998	485.89700000000005	-678.2384999999999	-329.11	0.0	-364.177	-111.63399999999999	0.0	-336.293	-163.83699999999996	0.0	-277.219	-259.817	104.28800000000001	-359.195	-259.817	0.0	-359.195	-226.07099999999997	474.35749999999996	-434.65549999999996	-146.564	960.7805	-569.236	-324.9774999999999	959.374	-560.8795	-214.69749999999996	1349.3205	-577.5070000000001	
493	2.46	-261.954	1376.331	-410.692	-263.9549999999999	1388.0	-739.809	-216.54599999999996	1348.396	-557.498	-212.95999999999998	1350.199	-597.159	-200.01899999999998	1198.141	-346.625	-78.02299999999998	1136.357	-296.555	-93.44699999999997	1106.181	-353.355	30.61300000000002	1132.387	-361.46	153.91500000000002	1147.1	-324.871	-163.99299999999994	1240.589	-811.901	-97.33099999999995	1133.342	-844.518	-109.10599999999995	1109.872	-781.621	-5.340999999999949	1100.991	-837.291	132.63400000000004	1159.461	-823.39	-141.38199999999998	962.405	-436.385	-152.10299999999995	959.129	-701.804	-320.63699999999994	955.758	-515.116	-325.77099999999996	947.771	-557.426	-329.74199999999996	963.164	-606.252	-191.02499999999998	734.519	-365.402	-283.184	723.728	-415.704	-287.403	594.054	-408.413	-246.86399999999998	484.119	-377.575	-205.45199999999997	464.664	-491.512	-234.00299999999996	407.064	-355.653	-251.71199999999996	302.44	-316.916	-312.421	406.072	-381.881	-325.644	288.524	-355.536	-270.708	103.173	-319.83	-248.91299999999998	105.58	-398.485	-329.099	58.394	-363.975	-163.83199999999997	44.737	-277.15	-111.63299999999998	67.141	-336.114	-185.96699999999996	782.63	-756.545	-188.48899999999995	649.683	-746.54	-290.95199999999994	796.139	-744.222	-302.3759999999999	661.313	-720.825	-261.3829999999999	496.963	-739.656	-245.58599999999998	474.768	-616.307	-229.22399999999993	403.557	-738.399	-322.35499999999996	416.831	-742.672	-329.48099999999994	301.808	-765.353	-284.02399999999994	104.862	-774.751	-269.12199999999996	103.65	-694.957	-346.93899999999996	53.604	-724.248	-179.62599999999995	44.223	-806.295	-128.33699999999993	69.231	-751.413	-189.52799999999996	857.979	-465.687	-208.58799999999997	867.295	-665.414	-346.93899999999996	0.0	-724.248	-128.33699999999993	0.0	-751.413	-179.62599999999995	0.0	-806.295	-276.5729999999999	104.256	-734.854	-276.5729999999999	0.0	-734.854	-253.48449999999997	485.8655	-677.9815	-329.099	0.0	-363.975	-111.63299999999998	0.0	-336.114	-163.83199999999997	0.0	-277.15	-259.81050000000005	104.3765	-359.1575	-259.81050000000005	0.0	-359.1575	-226.158	474.3915	-434.5435	-146.74249999999998	960.767	-569.0944999999999	-325.18949999999995	959.461	-560.684	-214.75299999999996	1349.2975000000001	-577.3285000000001	
